<svg clip-rule="evenodd" fill-rule="evenodd" height="512" stroke-linejoin="round" stroke-miterlimit="2" viewBox="0 0 356 356" width="512" xmlns="http://www.w3.org/2000/svg" xmlns:xlink="http://www.w3.org/1999/xlink"><linearGradient id="_Linear1" gradientTransform="matrix(0 122.061 -122.061 0 177.778 130.766)" gradientUnits="userSpaceOnUse" x1="0" x2="1" y1="0" y2="0"><stop offset="0" stop-color="#ffb541"/><stop offset="1" stop-color="#f59500"/></linearGradient><linearGradient id="_Linear2" gradientTransform="matrix(87.888 120.732 -120.732 87.888 173.611 41.3)" gradientUnits="userSpaceOnUse" x1="0" x2="1" y1="0" y2="0"><stop offset="0" stop-color="#ffd952"/><stop offset="1" stop-color="#ffa501"/></linearGradient><linearGradient id="_Linear3" gradientTransform="matrix(82.664 78.478 -78.478 82.664 110.136 58.439)" gradientUnits="userSpaceOnUse" x1="0" x2="1" y1="0" y2="0"><stop offset="0" stop-color="#ffdf6c"/><stop offset="1" stop-color="#ffa501"/></linearGradient><linearGradient id="_Linear4" gradientTransform="matrix(0 130.411 -130.411 0 177.778 122.107)" gradientUnits="userSpaceOnUse" x1="0" x2="1" y1="0" y2="0"><stop offset="0" stop-color="#ffa841"/><stop offset="1" stop-color="#f27b00"/></linearGradient><radialGradient id="_Radial5" cx="0" cy="0" gradientTransform="matrix(154.705 52.819 -52.819 154.705 177.778 165.782)" gradientUnits="userSpaceOnUse" r="1"><stop offset="0" stop-color="#ffa501"/><stop offset=".57" stop-color="#ffaf0e"/><stop offset="1" stop-color="#ffd541"/></radialGradient><g id="Exp-4.-S"><g><path d="m162.664 44.233c2.849-5.741 8.705-9.372 15.114-9.372s12.265 3.631 15.114 9.372l29.434 59.308 65.501 9.666c6.34.936 11.603 5.383 13.584 11.478 1.98 6.096.336 12.787-4.243 17.271l-47.31 46.32 11.048 65.283c1.069 6.319-1.534 12.698-6.719 16.466-5.185 3.767-12.057 4.271-17.736 1.301l-58.673-30.68-58.673 30.68c-5.68 2.97-12.552 2.466-17.737-1.301-5.185-3.768-7.788-10.147-6.718-16.466l11.048-65.283-47.31-46.32c-4.58-4.484-6.224-11.175-4.243-17.271 1.98-6.095 7.243-10.542 13.584-11.478l65.501-9.666z" fill="url(#_Linear1)"/><path d="m177.778 35.787c6.409 0 12.265 3.631 15.114 9.372l29.434 59.308 65.501 9.666c6.34.936 11.603 5.383 13.584 11.478.031.098.062.195.092.293l-123.725 39.878z" fill="url(#_Linear2)"/><path d="m177.778 165.782-123.725-39.878c.029-.098.06-.195.092-.293 1.98-6.095 7.243-10.542 13.584-11.478l65.501-9.666 29.434-59.308c2.849-5.741 8.705-9.372 15.114-9.372z" fill="url(#_Linear3)"/><path d="m254.29 269.698c-.156.12-.314.238-.475.354-5.185 3.735-12.056 4.235-17.736 1.291l-58.673-30.419-58.673 30.419c-5.582 2.893-12.315 2.46-17.467-1.101l76.14-104.46z" fill="url(#_Linear4)"/><g fill="url(#_Radial5)"><path d="m173.611 270.52v56.835c0 2.3 1.867 4.167 4.167 4.167 2.299 0 4.166-1.867 4.166-4.167v-56.835c0-2.299-1.867-4.166-4.166-4.166-2.3 0-4.167 1.867-4.167 4.166z"/><path d="m278.257 199.799 53.715 18.572c2.173.752 4.548-.403 5.299-2.576.752-2.173-.403-4.548-2.576-5.299l-53.715-18.573c-2.173-.751-4.548.403-5.299 2.577-.752 2.173.403 4.548 2.576 5.299z"/><path d="m74.575 191.923-53.714 18.573c-2.174.751-3.328 3.126-2.577 5.299.752 2.173 3.126 3.328 5.3 2.576l53.715-18.572c2.173-.751 3.327-3.126 2.576-5.299-.752-2.174-3.126-3.328-5.3-2.577z"/><path d="m248.823 77.384 32.216-46.822c1.304-1.894.824-4.491-1.07-5.794-1.895-1.304-4.491-.824-5.795 1.071l-32.216 46.822c-1.303 1.894-.823 4.491 1.071 5.794 1.895 1.304 4.491.824 5.794-1.071z"/><path d="m117.683 72.344-36.543-43.53c-1.479-1.761-4.109-1.991-5.87-.512-1.762 1.479-1.991 4.109-.512 5.87l36.542 43.53c1.479 1.761 4.109 1.99 5.871.512 1.761-1.479 1.99-4.109.512-5.87z"/></g></g></g></svg>